<svg xmlns="http://www.w3.org/2000/svg" width="150" height="150" fill="none"><rect width="150" height="150" fill="#171717" rx="25"/><path fill="#4EE646" d="M20.93 100c-2.603 0-4.74-2.117-4.45-4.705.557-4.953 1.99-9.817 4.262-14.43 2.988-6.065 7.368-11.577 12.89-16.22 5.52-4.643 12.076-8.326 19.29-10.839C60.136 51.293 67.867 50 75.676 50c7.808 0 15.54 1.293 22.754 3.806 7.214 2.513 13.769 6.196 19.29 10.839 5.521 4.643 9.901 10.154 12.889 16.22 2.272 4.613 3.706 9.478 4.262 14.43.291 2.588-1.847 4.705-4.45 4.705-2.604 0-4.683-2.12-5.028-4.7-.523-3.912-1.697-7.75-3.495-11.4-2.514-5.104-6.2-9.742-10.845-13.649-4.646-3.907-10.161-7.005-16.231-9.12-6.07-2.114-12.576-3.202-19.146-3.202S62.6 59.017 56.53 61.13c-6.07 2.115-11.586 5.213-16.231 9.12-4.646 3.907-8.331 8.545-10.846 13.649-1.798 3.65-2.972 7.488-3.495 11.4-.345 2.58-2.424 4.7-5.027 4.7Z"/><circle cx="75" cy="56.081" r="16.243" fill="#4EE646" stroke="#171717" stroke-width="4"/></svg>