<svg width="111" height="111" viewBox="0 0 111 111" fill="none" xmlns="http://www.w3.org/2000/svg">
<rect width="111" height="111" fill="#282828"/>
<path d="M15.4887 74C13.5619 74 11.98 72.4333 12.1952 70.5186C12.6071 66.8535 13.668 63.2539 15.3493 59.8407C17.5605 55.3517 20.8015 51.2728 24.8873 47.837C28.9731 44.4013 33.8236 41.6759 39.1619 39.8165C44.5003 37.957 50.2218 37 56 37C61.7782 37 67.4998 37.957 72.8381 39.8165C78.1764 41.6759 83.0269 44.4013 87.1127 47.8371C91.1985 51.2728 94.4395 55.3517 96.6507 59.8407C98.332 63.2539 99.3929 66.8535 99.8048 70.5186C100.02 72.4333 98.4381 74 96.5113 74V74C94.5846 74 93.0462 72.4313 92.7908 70.5216C92.4039 67.6274 91.5351 64.7874 90.2044 62.0861C88.3439 58.3089 85.6168 54.8768 82.179 51.9859C78.7411 49.095 74.6597 46.8017 70.168 45.2372C65.6762 43.6726 60.8619 42.8673 56 42.8673C51.1381 42.8673 46.3239 43.6726 41.8321 45.2372C37.3403 46.8017 33.2589 49.0949 29.8211 51.9859C26.3832 54.8768 23.6561 58.3089 21.7956 62.086C20.4649 64.7874 19.5961 67.6274 19.2092 70.5216C18.9538 72.4313 17.4154 74 15.4887 74V74Z" fill="#4EE646"/>
<circle cx="55.5" cy="41.5" r="11.5" fill="#4EE646" stroke="#282828" stroke-width="4"/>
</svg>
